inDegrees=no
num_controls=7
num_derivatives=13
num_iterations=116
num_multipliers=7
num_parameters=0
num_slacks=7
num_states=26
objective=0.477057
objective_accelerations=0.044315
objective_balance=0.003627
objective_effort=0.040479
objective_height=0.382975
objective_ligament=0.005662
solver_duration=1748.008658
status=Solve_Succeeded
success=true
DataType=double
version=3
OpenSimVersion=4.5
endheader
time	/jointset/ground_pelvis/pelvis_tilt/value	/jointset/ground_pelvis/pelvis_tx/value	/jointset/ground_pelvis/pelvis_ty/value	/jointset/hip_l/hip_flexion_l/value	/jointset/hip_l/hip_adduction_l/value	/jointset/hip_l/hip_rotation_l/value	/jointset/back/lumbar_extension/value	/jointset/patellofemoral_l/patellar_flexion_l/value	/jointset/knee_l/knee_flexion_l/value	/jointset/knee_l/knee_adduction_l/value	/jointset/knee_l/knee_rotation_l/value	/jointset/ankle_l/ankle_angle_l/value	/jointset/subtalar_l/subtalar_angle_l/value	/jointset/ground_pelvis/pelvis_tilt/speed	/jointset/ground_pelvis/pelvis_tx/speed	/jointset/ground_pelvis/pelvis_ty/speed	/jointset/hip_l/hip_flexion_l/speed	/jointset/hip_l/hip_adduction_l/speed	/jointset/hip_l/hip_rotation_l/speed	/jointset/back/lumbar_extension/speed	/jointset/patellofemoral_l/patellar_flexion_l/speed	/jointset/knee_l/knee_flexion_l/speed	/jointset/knee_l/knee_adduction_l/speed	/jointset/knee_l/knee_rotation_l/speed	/jointset/ankle_l/ankle_angle_l/speed	/jointset/subtalar_l/subtalar_angle_l/speed	/forceset/tau_hip_flexion_l	/forceset/tau_hip_adduction_l	/forceset/tau_hip_rotation_l	/forceset/tau_knee_flexion_l	/forceset/tau_ankle_angle_l	/forceset/tau_subtalar_angle_l	/forceset/tau_lumbar_extension	lambda_cid13_p0	lambda_cid13_p1	lambda_cid13_p2	lambda_cid13_p3	lambda_cid13_p4	lambda_cid13_p5	lambda_cid14_p0	/jointset/ground_pelvis/pelvis_tilt/accel	/jointset/ground_pelvis/pelvis_tx/accel	/jointset/ground_pelvis/pelvis_ty/accel	/jointset/hip_l/hip_flexion_l/accel	/jointset/hip_l/hip_adduction_l/accel	/jointset/hip_l/hip_rotation_l/accel	/jointset/back/lumbar_extension/accel	/jointset/patellofemoral_l/patellar_flexion_l/accel	/jointset/knee_l/knee_flexion_l/accel	/jointset/knee_l/knee_adduction_l/accel	/jointset/knee_l/knee_rotation_l/accel	/jointset/ankle_l/ankle_angle_l/accel	/jointset/subtalar_l/subtalar_angle_l/accel	gamma_cid13_p0	gamma_cid13_p1	gamma_cid13_p2	gamma_cid13_p3	gamma_cid13_p4	gamma_cid13_p5	gamma_cid14_p0
0	-0.0367914872232402	0.05666380748539934	0.9203421456538577	0.3085816938045678	-0.2956311733179294	-0.3014047328449312	-0.3879492264334186	0.2499269421184982	0.2499269421184919	-0.1745327762336293	-0.1743339930029597	-0.0008036623358878681	0.0004446447490542805	0	0	0	0	0	0	0	0	0	0	0	0	0	0.06971622181629201	-0.04363905104934009	-0.0196072067643362	-0.240900721270838	0.1883692689238312	-0.01662176404417484	0.004753130821319511	16.96213662224252	1.630224028294308	2.276930844000854	9.827644722380574	-622.7521460423021	-71.33378141612104	-23.19018506742915	-1.000696686961664	-2.009044334492545	-0.9191992816285239	9.265904535797038	-0.8130310050342816	3.30229979287351	-7.155097725665297	9.405464641646292	9.405464641646832	1.336054806227164	-0.09029210154763469	1.681197331057531	-0.3016944981561719	8.237789861045635e-09	1.693231341171164e-07	3.106773165650651e-08	-9.675727080983946e-09	1.201150065843421e-07	2.875566483913025e-08	1.052419631853877e-08
0.01	-0.03683790795656114	0.05656543736258453	0.9202972036391054	0.3090329597202686	-0.2956722639216463	-0.3012386075895484	-0.3883059577655705	0.250388383574433	0.250388383574423	-0.1744700606049681	-0.1743349922683778	-0.0007206779864219357	0.0004287209224618932	-0.00925047229902424	-0.01948396371625858	-0.008952929933793055	0.08974791027483012	-0.008206060014379886	0.03308781948613592	-0.07089128034252887	0.09191711352363367	0.09191711352363369	0.01243430081969556	-0.0002043878553390658	0.01666769984798592	-0.003146627691606916	0.06781294763780513	-0.05448815439330767	-0.01973077733634055	-0.2434224486707907	0.1914224231818108	-0.006737783824331379	0.007827166138815031	18.23327036647294	-2.744384957640432	2.813798558410806	6.734445576468651	-625.398279464403	-80.39476460380402	-23.1955198946565	-0.8821787436585296	-1.889565198832833	-0.8779948737595786	8.753438163082645	-0.822616313912925	3.291442109958234	-6.987895274970686	9.029155953515779	9.029155953515268	1.180825925902563	0.0138072918760276	1.670185530065681	-0.3154568753022335	-2.93783823013023e-08	1.423027599597225e-07	1.31814645205973e-07	1.989077701150457e-08	-7.654867358329922e-09	-4.494537672947423e-08	-4.492701863142577e-09
0.02	-0.03697582466133878	0.05627792904087851	0.9201638013201141	0.3103665455166648	-0.2957950596883624	-0.3007457203226099	-0.389357952318435	0.2517578604147601	0.2517578604147605	-0.1742862603268843	-0.1743381715284716	-0.0004688907947972055	0.0003824688248255478	-0.01829919428944488	-0.03782763977824414	-0.01769206084779447	0.1764639761399192	-0.01634103259968895	0.06535240231125607	-0.139052644141988	0.1816070768790223	0.1816070768790129	0.02421692988186409	-0.0004359989345554588	0.03376056843183223	-0.006065654208786049	0.06590967345934477	-0.06533725773725983	-0.01985434790832241	-0.2459441760707254	0.1944755774398044	0.003146196395532575	0.01090120145631749	19.57718945209891	-7.130526578445849	3.351120896989095	3.524293143446828	-626.9591201530035	-89.36462017525484	-23.21125082107163	-0.9603466252407333	-1.780986803638118	-0.8764394776701996	8.659535653848833	-0.7988135192201258	3.137652460670348	-6.609114417051227	8.960034607997315	8.960034607995969	1.205720454721749	-0.09573674632312737	1.766231078229408	-0.2561742632706935	-6.699455446365023e-08	1.152823858023287e-07	2.325615587554394e-07	4.94572811039931e-08	-1.354247413010019e-07	-1.186464182980787e-07	-1.950960004482393e-08
0.03	-0.03720304715920872	0.05581174248141182	0.919943850088228	0.3125529723621929	-0.2959982381562893	-0.2999353260914718	-0.3910773303101302	0.2540124823943669	0.2540124823943668	-0.173987099700575	-0.1743443220065299	-4.558538304537447e-05	0.0003082671657489195	-0.02707474359335079	-0.05531405220158324	-0.02628163069087477	0.260377157587669	-0.02422508141537312	0.09656891634691424	-0.2043321441780286	0.2688749412357812	0.268874941235781	0.03557067081076477	-0.0007709605043873732	0.0508202969429943	-0.008730067279023666	0.05766658392777327	-0.05789473715390497	-0.01868095096863748	-0.237462731894887	0.1852044229815385	0.001900489764056421	0.01779480126507992	16.48881504764956	-6.158346503188444	3.321297964595121	4.83044102810728	-628.5247200284838	-86.32113333506923	-23.23676880696567	-0.825581408430908	-1.71811546421352	-0.8477601130380357	8.190564168504789	-0.7728119717169638	3.089991407406533	-6.413746293657922	8.543809641263449	8.543809641265577	1.093565119308334	0.001131286833671833	1.663810608826769	-0.2649280789997799	-8.852317180088088e-08	1.001260887663168e-07	2.878812090769399e-07	7.031159272816735e-08	-2.28459754399195e-07	-1.562181443959439e-07	-2.67389224570514e-08
0.04	-0.03751590961521942	0.05517356239720492	0.9196384942828286	0.3155652019778435	-0.2962781793941666	-0.2988174986134962	-0.3934347790015439	0.2571265124758871	0.2571265124758895	-0.1735757288235037	-0.1743531206704581	0.0005459106880713739	0.0002087507259499731	-0.03542718591583072	-0.07222634472628559	-0.03477297555041948	0.3416245301660896	-0.0316935865900314	0.1268390516782909	-0.2666667840851386	0.3534886972624695	0.3534886972624811	0.04665898003302712	-0.0009656361083430778	0.06739870030484009	-0.01112861035324251	0.0494234943961708	-0.05045221657055859	-0.0175075540289321	-0.2289812877190757	0.1759332685232614	0.0006547831325674677	0.02468840107383	13.46827997731933	-5.194807516418313	3.289155474547195	6.017928148013802	-629.0913793707095	-83.19013056880006	-23.27118193158519	-0.8757252289553319	-1.666162823910937	-0.8567944809630821	8.126373879982983	-0.7157047910149432	2.948376719814048	-6.020142391264984	8.429212941983224	8.429212941982394	1.152634113394102	-0.06767955314790393	1.669966048365962	-0.2030002640669982	-1.097200869767689e-07	8.521441187713752e-08	3.422642147958019e-07	9.098627151794338e-08	-3.207785847995638e-07	-1.930449361542062e-07	-3.380767629671283e-08
0.05	-0.03791055318431476	0.05436925046117214	0.9192484871144919	0.3193772512887024	-0.2966307649276435	-0.2974021154395151	-0.3964012085528941	0.2610740818953165	0.2610740818953097	-0.1730548610706601	-0.1743637451740437	0.001301101470835956	8.664614657873801e-05	-0.04343879761395777	-0.08852735260406498	-0.04322905292690671	0.4203551579938441	-0.03876176824520357	0.1560735069833883	-0.32619636921206	0.4356160167150115	0.4356160167149477	0.0574441040962238	-0.001152232996896426	0.08358113453276515	-0.01324887882727531	0.04267745872064844	-0.04846441976765926	-0.01661265706112043	-0.2237238944794673	0.1694837230060142	0.0029466348154004	0.03047787196570099	11.49633955852837	-5.878763279685805	3.436892383690393	6.331141898800797	-629.5602938295107	-83.70381101481672	-23.31335300213378	-0.7544739040199728	-1.595747924404547	-0.8401684892208759	7.681869501306824	-0.6931674915351376	2.886319381427594	-5.855953027142943	8.043122779396491	8.043122779385737	1.030929263827629	0.006962141873155274	1.583630694391093	-0.2100784437430631	-1.236616534989962e-07	5.471001295452224e-08	3.805038685704024e-07	1.028920325450669e-07	-3.839544440676835e-07	-2.223227836076126e-07	-4.061869369422436e-08
0.06	-0.03838343182315574	0.05340519281542247	0.9187738883477443	0.3239636993312605	-0.2970521908054248	-0.2956993198233682	-0.399950251246263	0.2658306507757703	0.2658306507757612	-0.1724282465349749	-0.1743760132667988	0.002216366312756668	-5.536877846719656e-05	-0.05107419986319285	-0.1041754866696638	-0.05169129523257971	0.4965042765070026	-0.04546165545104828	0.1843215401112862	-0.3831894124884433	0.5152885894678251	0.5152885894676908	0.06780833660122672	-0.001294353942161117	0.0994135121361004	-0.01511067948817499	0.03593142304512983	-0.04647662296475846	-0.0157177600932933	-0.2184665012398594	0.1630341774887686	0.005238486498235204	0.03626734285757383	9.584957452487048	-6.57152194281549	3.583976389989355	6.53304129119749	-629.1358306604269	-84.14060431566553	-23.36205188889782	-0.8004833391767389	-1.535588061474986	-0.8580274668002396	7.6100720170638	-0.6420459011494438	2.751092284374149	-5.512834021157246	7.938263602037574	7.938263602037718	1.068455801755368	-0.05878436449018295	1.599954723447822	-0.1513067014404251	-1.372977316568589e-07	2.354907836734125e-08	4.180638022631392e-07	1.14428575982184e-07	-4.459032308670767e-07	-2.512827807744987e-07	-4.741885903101379e-08
